# xmcd
#
# Track frame offsets:
#	150
#	11915
#	25667
#	41592
#	54475
#	66400
#	78790
#	92095
#	104415
#	115782
#	128915
#	142527
#	153255
#	167765
#	183620
#	198307
#	211455
#	222567
#	233732
#	246322
#	257352
#	271207
#
# Disc length: 3771 seconds
#
# Revision: 0
# Processed by: cddbd v1.5.1PL2 Copyright (c) Steve Scherf et al.
# Submitted via: EasyCDDAExtractor 8.2.0.1
#
DISCID=300eb916
DTITLE=Various Artist - Take Two - Together
DYEAR=1900
DGENRE=Soul
TTITLE0=Marvin Gaye and Mary Wells - Once Upon A Time
TTITLE1=Marvin Gaye and Mary Wells - 'Deed I Do
TTITLE2=Marvin Gaye and Mary Wells - Until I Meet You
TTITLE3=Marvin Gaye and Mary Wells - Together
TTITLE4=Marvin Gaye and Mary Wells - (I Love You) For Sentimental Reasons
TTITLE5=Marvin Gaye and Mary Wells - The Late, Late Show
TTITLE6=Marvin Gaye and Mary Wells - After The Lights Go Down Low
TTITLE7=Marvin Gaye and Mary Wells - Squeeze Me
TTITLE8=Marvin Gaye and Mary Wells - What's The Matter With You Baby
TTITLE9=Marvin Gaye and Mary Wells - You Came A Long Way From St Louis
TTITLE10=Marvin Gaye and Kimmi Weston - It Takes Two
TTITLE11=Marvin Gaye and Kimmi Weston - I Love You, Yes I Do
TTITLE12=Marvin Gaye and Kimmi Weston - Baby I Need Your Loving
TTITLE13=Marvin Gaye and Kimmi Weston - It's Got To Be A Miracle (This Thing Cal
TTITLE13=led You)
TTITLE14=Marvin Gaye and Kimmi Weston - Baby Say Yes
TTITLE15=Marvin Gaye and Kimmi Weston - What Good Am I Without You
TTITLE16=Marvin Gaye and Kimmi Weston - Til There Was You
TTITLE17=Marvin Gaye and Kimmi Weston - Love Fell On Me
TTITLE18=Marvin Gaye and Kimmi Weston - Secret Love
TTITLE19=Marvin Gaye and Kimmi Weston - I Want You 'Round
TTITLE20=Marvin Gaye and Kimmi Weston - Heaven Sent You, I Know
TTITLE21=Marvin Gaye and Kimmi Weston - When We're Together
EXTD=
EXTT0=
EXTT1=
EXTT2=
EXTT3=
EXTT4=
EXTT5=
EXTT6=
EXTT7=
EXTT8=
EXTT9=
EXTT10=
EXTT11=
EXTT12=
EXTT13=
EXTT14=
EXTT15=
EXTT16=
EXTT17=
EXTT18=
EXTT19=
EXTT20=
EXTT21=
PLAYORDER=
